<mxfile host="65bd71144e">
    <diagram id="rdV9E5PzyE8Sf-52ZCCk" name="第1頁">
        <mxGraphModel dx="1078" dy="585" grid="1" gridSize="10" guides="1" tooltips="1" connect="1" arrows="1" fold="1" page="1" pageScale="1" pageWidth="827" pageHeight="1169" math="0" shadow="0">
            <root>
                <mxCell id="0"/>
                <mxCell id="1" parent="0"/>
                <mxCell id="6" value="使用著案例" style="swimlane;whiteSpace=wrap;html=1;strokeColor=#000000;" vertex="1" parent="1">
                    <mxGeometry x="290" y="20" width="200" height="620" as="geometry"/>
                </mxCell>
                <mxCell id="7" value="&lt;div style=&quot;font-family: Consolas, &amp;quot;Courier New&amp;quot;, monospace; font-size: 14px; line-height: 19px;&quot;&gt;&lt;font color=&quot;#000000&quot;&gt;申請人填寫資料&lt;/font&gt;&lt;/div&gt;" style="rounded=0;whiteSpace=wrap;html=1;strokeColor=#000000;" vertex="1" parent="6">
                    <mxGeometry x="40" y="50" width="120" height="60" as="geometry"/>
                </mxCell>
                <mxCell id="8" value="審核申請者資料" style="rounded=0;whiteSpace=wrap;html=1;strokeColor=#000000;" vertex="1" parent="6">
                    <mxGeometry x="40" y="120" width="120" height="60" as="geometry"/>
                </mxCell>
                <mxCell id="10" value="核對金融帳戶資訊" style="rounded=0;whiteSpace=wrap;html=1;strokeColor=#000000;" vertex="1" parent="6">
                    <mxGeometry x="40" y="200" width="120" height="60" as="geometry"/>
                </mxCell>
                <mxCell id="9" value="比對健保卡資料" style="rounded=0;whiteSpace=wrap;html=1;strokeColor=#000000;" vertex="1" parent="6">
                    <mxGeometry x="40" y="280" width="120" height="60" as="geometry"/>
                </mxCell>
                <mxCell id="11" value="管理普發名單" style="rounded=0;whiteSpace=wrap;html=1;strokeColor=#000000;" vertex="1" parent="6">
                    <mxGeometry x="40" y="360" width="120" height="60" as="geometry"/>
                </mxCell>
                <mxCell id="13" value="提供身份證字號或居留證號的真實性核對" style="rounded=0;whiteSpace=wrap;html=1;strokeColor=#000000;" vertex="1" parent="6">
                    <mxGeometry x="40" y="450" width="120" height="60" as="geometry"/>
                </mxCell>
                <mxCell id="12" value="設計前後台網站" style="rounded=0;whiteSpace=wrap;html=1;strokeColor=#000000;" vertex="1" parent="6">
                    <mxGeometry x="40" y="535" width="120" height="60" as="geometry"/>
                </mxCell>
                <mxCell id="22" style="edgeStyle=none;html=1;entryX=0;entryY=0.5;entryDx=0;entryDy=0;strokeColor=#000000;" edge="1" parent="1" source="15" target="7">
                    <mxGeometry relative="1" as="geometry"/>
                </mxCell>
                <mxCell id="15" value="申請人" style="rounded=0;whiteSpace=wrap;html=1;strokeColor=#000000;" vertex="1" parent="1">
                    <mxGeometry x="130" y="160" width="120" height="60" as="geometry"/>
                </mxCell>
                <mxCell id="33" style="edgeStyle=none;html=1;strokeColor=#000000;" edge="1" parent="1" source="16" target="12">
                    <mxGeometry relative="1" as="geometry"/>
                </mxCell>
                <mxCell id="16" value="系統設計師" style="rounded=0;whiteSpace=wrap;html=1;strokeColor=#000000;" vertex="1" parent="1">
                    <mxGeometry x="570" y="570" width="120" height="60" as="geometry"/>
                </mxCell>
                <mxCell id="25" style="edgeStyle=none;html=1;strokeColor=#000000;" edge="1" parent="1" source="17" target="10">
                    <mxGeometry relative="1" as="geometry"/>
                </mxCell>
                <mxCell id="35" style="edgeStyle=none;html=1;entryX=1;entryY=0;entryDx=0;entryDy=0;strokeColor=#000000;" edge="1" parent="1" source="17" target="13">
                    <mxGeometry relative="1" as="geometry"/>
                </mxCell>
                <mxCell id="17" value="第三方金融機構" style="rounded=0;whiteSpace=wrap;html=1;strokeColor=#000000;" vertex="1" parent="1">
                    <mxGeometry x="550" y="170" width="120" height="60" as="geometry"/>
                </mxCell>
                <mxCell id="28" style="edgeStyle=none;html=1;entryX=1;entryY=0.75;entryDx=0;entryDy=0;strokeColor=#000000;" edge="1" parent="1" source="18" target="9">
                    <mxGeometry relative="1" as="geometry"/>
                </mxCell>
                <mxCell id="34" style="edgeStyle=none;html=1;exitX=0;exitY=1;exitDx=0;exitDy=0;entryX=1;entryY=0.75;entryDx=0;entryDy=0;strokeColor=#000000;" edge="1" parent="1" source="18" target="13">
                    <mxGeometry relative="1" as="geometry"/>
                </mxCell>
                <mxCell id="18" value="健保局" style="rounded=0;whiteSpace=wrap;html=1;strokeColor=#000000;" vertex="1" parent="1">
                    <mxGeometry x="560" y="300" width="120" height="60" as="geometry"/>
                </mxCell>
                <mxCell id="29" style="edgeStyle=none;html=1;entryX=0.008;entryY=0.367;entryDx=0;entryDy=0;entryPerimeter=0;strokeColor=#000000;" edge="1" parent="1" source="19" target="11">
                    <mxGeometry relative="1" as="geometry"/>
                </mxCell>
                <mxCell id="32" style="edgeStyle=none;html=1;exitX=1;exitY=0.75;exitDx=0;exitDy=0;entryX=0;entryY=0.5;entryDx=0;entryDy=0;strokeColor=#000000;" edge="1" parent="1" source="19" target="13">
                    <mxGeometry relative="1" as="geometry"/>
                </mxCell>
                <mxCell id="19" value="戶政系統" style="rounded=0;whiteSpace=wrap;html=1;strokeColor=#000000;" vertex="1" parent="1">
                    <mxGeometry x="120" y="510" width="120" height="60" as="geometry"/>
                </mxCell>
                <mxCell id="31" style="edgeStyle=none;html=1;strokeColor=#000000;" edge="1" parent="1" source="20" target="11">
                    <mxGeometry relative="1" as="geometry"/>
                </mxCell>
                <mxCell id="20" value="金融負責單位" style="rounded=0;whiteSpace=wrap;html=1;strokeColor=#000000;" vertex="1" parent="1">
                    <mxGeometry x="590" y="410" width="120" height="60" as="geometry"/>
                </mxCell>
                <mxCell id="23" style="edgeStyle=none;html=1;entryX=0;entryY=0.5;entryDx=0;entryDy=0;strokeColor=#000000;" edge="1" parent="1" source="21" target="8">
                    <mxGeometry relative="1" as="geometry"/>
                </mxCell>
                <mxCell id="24" style="edgeStyle=none;html=1;exitX=1;exitY=0.5;exitDx=0;exitDy=0;entryX=0;entryY=0.75;entryDx=0;entryDy=0;strokeColor=#000000;" edge="1" parent="1" source="21" target="10">
                    <mxGeometry relative="1" as="geometry"/>
                </mxCell>
                <mxCell id="21" value="政府審核人員" style="rounded=0;whiteSpace=wrap;html=1;strokeColor=#000000;" vertex="1" parent="1">
                    <mxGeometry x="120" y="330" width="120" height="60" as="geometry"/>
                </mxCell>
            </root>
        </mxGraphModel>
    </diagram>
</mxfile>